<svg xmlns="http://www.w3.org/2000/svg" viewBox="0 0 1280 640" role="img" aria-labelledby="title desc">
<title id="title">OpenGlaze social preview</title>
<desc id="desc">OpenGlaze free open-source ceramic glaze calculator with UMF, CTE, and recipe optimization.</desc>
<defs><linearGradient id="bg" x1="0" y1="0" x2="1" y2="1"><stop offset="0" stop-color="#faf8f5"/><stop offset="1" stop-color="#dfeee7"/></linearGradient><radialGradient id="glaze" cx="50%" cy="45%" r="60%"><stop offset="0" stop-color="#a8d5bf"/><stop offset="0.45" stop-color="#5a9078"/><stop offset="1" stop-color="#2a3f36"/></radialGradient><filter id="shadow" x="-20%" y="-20%" width="140%" height="140%"><feDropShadow dx="0" dy="24" stdDeviation="24" flood-color="#2a1f19" flood-opacity="0.22"/></filter></defs>
<rect width="1280" height="640" fill="url(#bg)"/>
<circle cx="1030" cy="190" r="220" fill="#f2d4ad" opacity="0.55"/>
<circle cx="104" cy="548" r="210" fill="#c7e0d4" opacity="0.65"/>
<g filter="url(#shadow)"><rect x="820" y="130" width="310" height="310" rx="52" fill="url(#glaze)"/><path d="M875 292c57-96 153-115 213-54-65-22-126-1-183 72-16 20-43 6-30-18z" fill="#e3f0ea" opacity="0.68"/><path d="M888 370c88 34 157 20 211-42-24 82-133 116-221 63-20-12-13-29 10-21z" fill="#1f332b" opacity="0.38"/></g>
<text x="96" y="150" font-family="Inter, Arial, sans-serif" font-size="34" font-weight="800" fill="#467560" letter-spacing="4">OPEN SOURCE CERAMIC CHEMISTRY</text>
<text x="92" y="278" font-family="Georgia, serif" font-size="96" font-weight="700" fill="#1a1714">OpenGlaze</text>
<text x="98" y="354" font-family="Inter, Arial, sans-serif" font-size="38" font-weight="700" fill="#3a312b">Free ceramic glaze calculator</text>
<text x="98" y="414" font-family="Inter, Arial, sans-serif" font-size="30" fill="#665d55">UMF • CTE • oxide analysis • recipe optimization</text>
<text x="98" y="500" font-family="Inter, Arial, sans-serif" font-size="28" font-weight="800" fill="#844831">Self-hosted. MIT licensed. No paywalls.</text>
</svg>
